# xmcd
#
# Track frame offsets: 
#        150
#        15138
#        23833
#        49670
#        62244
#        72883
#        85093
#        96289
#        107524
#        123709
#        136012
#        154992
#
# Disc length: 2303 seconds
#
# Revision: 0
# Processed by: cddbd v1.4PL0 Copyright (c) Steve Scherf et al.
# Submitted via: ExactAudioCopy v0.90b4
#
DISCID=9308fd0c
DTITLE=The Animals - Boom Boom
DYEAR=1900
DGENRE=Blues
TTITLE0=Boom Boom
TTITLE1=Let The Good Times Roll
TTITLE2=The Story of Bo Diddley
TTITLE3=Hallelujah I Love Her So
TTITLE4=Baby Let Me Take You Home
TTITLE5=F-e-e-l
TTITLE6=Gonna Send You Back To Walker
TTITLE7=I Ain't Got You
TTITLE8=I'm Going To Change The World
TTITLE9=Bring It On Home To Me
TTITLE10=Worried Life Blues
TTITLE11=For Miss Caulker
EXTD=
EXTT0=
EXTT1=
EXTT2=
EXTT3=
EXTT4=
EXTT5=
EXTT6=
EXTT7=
EXTT8=
EXTT9=
EXTT10=
EXTT11=
PLAYORDER=
